<mxfile host="app.diagrams.net" modified="2024-05-07T14:47:44.833Z" agent="Mozilla/5.0 (Windows NT 10.0; Win64; x64) AppleWebKit/537.36 (KHTML, like Gecko) Chrome/124.0.0.0 Safari/537.36 Edg/124.0.0.0" etag="elWB3AnUNoDRfE4Z1chH" version="24.3.1" type="github">
  <diagram name="第 1 页" id="PMoVGaUA7Uy-ihZJWEPC">
    <mxGraphModel dx="1661" dy="659" grid="1" gridSize="10" guides="1" tooltips="1" connect="1" arrows="1" fold="1" page="1" pageScale="1" pageWidth="827" pageHeight="1169" math="0" shadow="0">
      <root>
        <mxCell id="0" />
        <mxCell id="1" parent="0" />
        <mxCell id="Rfd3X92rq1UrhuwKcy-7-62" value="" style="ellipse;whiteSpace=wrap;html=1;aspect=fixed;dashed=1;fillColor=none;" vertex="1" parent="1">
          <mxGeometry x="510" y="210" width="230" height="230" as="geometry" />
        </mxCell>
        <mxCell id="Rfd3X92rq1UrhuwKcy-7-61" value="" style="ellipse;whiteSpace=wrap;html=1;aspect=fixed;dashed=1;fillColor=none;" vertex="1" parent="1">
          <mxGeometry x="330" y="200" width="230" height="230" as="geometry" />
        </mxCell>
        <mxCell id="Rfd3X92rq1UrhuwKcy-7-60" value="" style="ellipse;whiteSpace=wrap;html=1;aspect=fixed;dashed=1;fillColor=none;" vertex="1" parent="1">
          <mxGeometry x="157.5" y="245" width="230" height="230" as="geometry" />
        </mxCell>
        <mxCell id="Rfd3X92rq1UrhuwKcy-7-2" value="&lt;font size=&quot;1&quot; face=&quot;Times New Roman&quot; style=&quot;&quot;&gt;&lt;b style=&quot;font-size: 17px;&quot;&gt;Scheduler&lt;/b&gt;&lt;/font&gt;" style="rounded=0;whiteSpace=wrap;html=1;" vertex="1" parent="1">
          <mxGeometry x="114" y="40" width="599" height="60" as="geometry" />
        </mxCell>
        <mxCell id="Rfd3X92rq1UrhuwKcy-7-3" value="" style="image;points=[];aspect=fixed;html=1;align=center;shadow=0;dashed=0;image=img/lib/allied_telesis/computer_and_terminals/Server_Desktop.svg;" vertex="1" parent="1">
          <mxGeometry x="421.33" y="285" width="47.33" height="60" as="geometry" />
        </mxCell>
        <mxCell id="Rfd3X92rq1UrhuwKcy-7-4" value="" style="image;points=[];aspect=fixed;html=1;align=center;shadow=0;dashed=0;image=img/lib/allied_telesis/computer_and_terminals/Server_Desktop.svg;" vertex="1" parent="1">
          <mxGeometry x="601.33" y="295" width="47.33" height="60" as="geometry" />
        </mxCell>
        <mxCell id="Rfd3X92rq1UrhuwKcy-7-6" value="" style="image;points=[];aspect=fixed;html=1;align=center;shadow=0;dashed=0;image=img/lib/allied_telesis/computer_and_terminals/Server_Desktop.svg;" vertex="1" parent="1">
          <mxGeometry x="248.83" y="322.5" width="47.33" height="60" as="geometry" />
        </mxCell>
        <mxCell id="Rfd3X92rq1UrhuwKcy-7-40" value="" style="group" vertex="1" connectable="0" parent="1">
          <mxGeometry x="502" y="45" width="192.66000000000003" height="50" as="geometry" />
        </mxCell>
        <mxCell id="Rfd3X92rq1UrhuwKcy-7-30" value="" style="rounded=1;whiteSpace=wrap;html=1;" vertex="1" parent="Rfd3X92rq1UrhuwKcy-7-40">
          <mxGeometry width="192.66" height="50" as="geometry" />
        </mxCell>
        <mxCell id="Rfd3X92rq1UrhuwKcy-7-32" value="r&lt;sub&gt;i&lt;/sub&gt;" style="whiteSpace=wrap;html=1;aspect=fixed;fillColor=none;strokeColor=#66FFFF;dashed=1;" vertex="1" parent="Rfd3X92rq1UrhuwKcy-7-40">
          <mxGeometry x="9.999999999999943" y="5" width="40" height="40" as="geometry" />
        </mxCell>
        <mxCell id="Rfd3X92rq1UrhuwKcy-7-33" value="r&lt;sub&gt;i+1&lt;/sub&gt;" style="whiteSpace=wrap;html=1;aspect=fixed;" vertex="1" parent="Rfd3X92rq1UrhuwKcy-7-40">
          <mxGeometry x="67.32999999999998" y="5" width="40" height="40" as="geometry" />
        </mxCell>
        <mxCell id="Rfd3X92rq1UrhuwKcy-7-34" value="r&lt;sub&gt;n&lt;/sub&gt;" style="whiteSpace=wrap;html=1;aspect=fixed;" vertex="1" parent="Rfd3X92rq1UrhuwKcy-7-40">
          <mxGeometry x="144.6599999999999" y="5" width="40" height="40" as="geometry" />
        </mxCell>
        <mxCell id="Rfd3X92rq1UrhuwKcy-7-35" value="&lt;b&gt;&lt;font style=&quot;font-size: 16px;&quot;&gt;...&lt;/font&gt;&lt;/b&gt;" style="text;strokeColor=none;align=center;fillColor=none;html=1;verticalAlign=middle;whiteSpace=wrap;rounded=0;" vertex="1" parent="Rfd3X92rq1UrhuwKcy-7-40">
          <mxGeometry x="104.65999999999991" y="18.75" width="40" height="12.5" as="geometry" />
        </mxCell>
        <mxCell id="Rfd3X92rq1UrhuwKcy-7-63" value="&lt;font face=&quot;Times New Roman&quot;&gt;S&lt;sub&gt;i&lt;/sub&gt;&lt;/font&gt;" style="text;strokeColor=none;align=center;fillColor=none;html=1;verticalAlign=middle;whiteSpace=wrap;rounded=0;" vertex="1" parent="1">
          <mxGeometry x="251.25" y="382.5" width="42.5" height="20" as="geometry" />
        </mxCell>
        <mxCell id="Rfd3X92rq1UrhuwKcy-7-64" value="&lt;font face=&quot;Times New Roman&quot;&gt;S&lt;sub&gt;j&lt;/sub&gt;&lt;/font&gt;" style="text;strokeColor=none;align=center;fillColor=none;html=1;verticalAlign=middle;whiteSpace=wrap;rounded=0;" vertex="1" parent="1">
          <mxGeometry x="423.75" y="345" width="42.5" height="20" as="geometry" />
        </mxCell>
        <mxCell id="Rfd3X92rq1UrhuwKcy-7-65" value="&lt;font face=&quot;Times New Roman&quot;&gt;S&lt;sub&gt;k&lt;/sub&gt;&lt;/font&gt;" style="text;strokeColor=none;align=center;fillColor=none;html=1;verticalAlign=middle;whiteSpace=wrap;rounded=0;" vertex="1" parent="1">
          <mxGeometry x="603.75" y="355" width="42.5" height="20" as="geometry" />
        </mxCell>
        <mxCell id="Rfd3X92rq1UrhuwKcy-7-81" value="" style="rounded=0;whiteSpace=wrap;html=1;" vertex="1" parent="1">
          <mxGeometry x="200" y="280" width="120" height="35" as="geometry" />
        </mxCell>
        <mxCell id="Rfd3X92rq1UrhuwKcy-7-82" value="" style="whiteSpace=wrap;html=1;aspect=fixed;" vertex="1" parent="1">
          <mxGeometry x="210" y="282.5" width="30" height="30" as="geometry" />
        </mxCell>
        <mxCell id="Rfd3X92rq1UrhuwKcy-7-83" value="" style="whiteSpace=wrap;html=1;aspect=fixed;" vertex="1" parent="1">
          <mxGeometry x="245" y="282.5" width="30" height="30" as="geometry" />
        </mxCell>
        <mxCell id="Rfd3X92rq1UrhuwKcy-7-84" value="" style="whiteSpace=wrap;html=1;aspect=fixed;" vertex="1" parent="1">
          <mxGeometry x="280" y="282.5" width="30" height="30" as="geometry" />
        </mxCell>
        <mxCell id="Rfd3X92rq1UrhuwKcy-7-85" value="" style="rounded=0;whiteSpace=wrap;html=1;" vertex="1" parent="1">
          <mxGeometry x="360" y="240" width="155" height="35" as="geometry" />
        </mxCell>
        <mxCell id="Rfd3X92rq1UrhuwKcy-7-86" value="" style="whiteSpace=wrap;html=1;aspect=fixed;" vertex="1" parent="1">
          <mxGeometry x="370" y="242.5" width="30" height="30" as="geometry" />
        </mxCell>
        <mxCell id="Rfd3X92rq1UrhuwKcy-7-87" value="" style="whiteSpace=wrap;html=1;aspect=fixed;" vertex="1" parent="1">
          <mxGeometry x="405" y="242.5" width="30" height="30" as="geometry" />
        </mxCell>
        <mxCell id="Rfd3X92rq1UrhuwKcy-7-88" value="" style="whiteSpace=wrap;html=1;aspect=fixed;" vertex="1" parent="1">
          <mxGeometry x="440" y="242.5" width="30" height="30" as="geometry" />
        </mxCell>
        <mxCell id="Rfd3X92rq1UrhuwKcy-7-89" value="" style="whiteSpace=wrap;html=1;aspect=fixed;" vertex="1" parent="1">
          <mxGeometry x="476" y="242.5" width="30" height="30" as="geometry" />
        </mxCell>
        <mxCell id="Rfd3X92rq1UrhuwKcy-7-91" value="" style="rounded=0;whiteSpace=wrap;html=1;" vertex="1" parent="1">
          <mxGeometry x="560" y="250" width="145" height="35" as="geometry" />
        </mxCell>
        <mxCell id="Rfd3X92rq1UrhuwKcy-7-92" value="" style="whiteSpace=wrap;html=1;aspect=fixed;" vertex="1" parent="1">
          <mxGeometry x="575" y="252.5" width="30" height="30" as="geometry" />
        </mxCell>
        <mxCell id="Rfd3X92rq1UrhuwKcy-7-93" value="" style="whiteSpace=wrap;html=1;aspect=fixed;" vertex="1" parent="1">
          <mxGeometry x="616.25" y="252.5" width="30" height="30" as="geometry" />
        </mxCell>
        <mxCell id="Rfd3X92rq1UrhuwKcy-7-101" value="" style="endArrow=classic;html=1;rounded=0;entryX=0.75;entryY=0;entryDx=0;entryDy=0;" edge="1" parent="1" target="Rfd3X92rq1UrhuwKcy-7-91">
          <mxGeometry width="50" height="50" relative="1" as="geometry">
            <mxPoint x="440" y="100" as="sourcePoint" />
            <mxPoint x="490" y="50" as="targetPoint" />
          </mxGeometry>
        </mxCell>
        <mxCell id="Rfd3X92rq1UrhuwKcy-7-103" value="r&lt;sub&gt;i&lt;/sub&gt;" style="whiteSpace=wrap;html=1;aspect=fixed;fillColor=none;strokeColor=#66FFFF;dashed=1;" vertex="1" parent="1">
          <mxGeometry x="660" y="252.5" width="30" height="30" as="geometry" />
        </mxCell>
        <mxCell id="Rfd3X92rq1UrhuwKcy-7-195" value="" style="ellipse;whiteSpace=wrap;html=1;aspect=fixed;dashed=1;fillColor=none;" vertex="1" parent="1">
          <mxGeometry x="1316" y="210" width="230" height="230" as="geometry" />
        </mxCell>
        <mxCell id="Rfd3X92rq1UrhuwKcy-7-196" value="" style="ellipse;whiteSpace=wrap;html=1;aspect=fixed;dashed=1;fillColor=none;" vertex="1" parent="1">
          <mxGeometry x="1136" y="200" width="230" height="230" as="geometry" />
        </mxCell>
        <mxCell id="Rfd3X92rq1UrhuwKcy-7-197" value="" style="ellipse;whiteSpace=wrap;html=1;aspect=fixed;dashed=1;fillColor=none;" vertex="1" parent="1">
          <mxGeometry x="963.5" y="245" width="230" height="230" as="geometry" />
        </mxCell>
        <mxCell id="Rfd3X92rq1UrhuwKcy-7-198" value="&lt;font size=&quot;1&quot; face=&quot;Times New Roman&quot; style=&quot;&quot;&gt;&lt;b style=&quot;font-size: 17px;&quot;&gt;Scheduler&lt;/b&gt;&lt;/font&gt;" style="rounded=0;whiteSpace=wrap;html=1;" vertex="1" parent="1">
          <mxGeometry x="920" y="40" width="599" height="60" as="geometry" />
        </mxCell>
        <mxCell id="Rfd3X92rq1UrhuwKcy-7-199" value="" style="image;points=[];aspect=fixed;html=1;align=center;shadow=0;dashed=0;image=img/lib/allied_telesis/computer_and_terminals/Server_Desktop.svg;" vertex="1" parent="1">
          <mxGeometry x="1227.33" y="285" width="47.33" height="60" as="geometry" />
        </mxCell>
        <mxCell id="Rfd3X92rq1UrhuwKcy-7-200" value="" style="image;points=[];aspect=fixed;html=1;align=center;shadow=0;dashed=0;image=img/lib/allied_telesis/computer_and_terminals/Server_Desktop.svg;" vertex="1" parent="1">
          <mxGeometry x="1407.33" y="295" width="47.33" height="60" as="geometry" />
        </mxCell>
        <mxCell id="Rfd3X92rq1UrhuwKcy-7-201" value="" style="image;points=[];aspect=fixed;html=1;align=center;shadow=0;dashed=0;image=img/lib/allied_telesis/computer_and_terminals/Server_Desktop.svg;" vertex="1" parent="1">
          <mxGeometry x="1054.83" y="322.5" width="47.33" height="60" as="geometry" />
        </mxCell>
        <mxCell id="Rfd3X92rq1UrhuwKcy-7-202" value="" style="group" vertex="1" connectable="0" parent="1">
          <mxGeometry x="1299.67" y="45" width="192.66000000000003" height="50" as="geometry" />
        </mxCell>
        <mxCell id="Rfd3X92rq1UrhuwKcy-7-203" value="" style="rounded=1;whiteSpace=wrap;html=1;" vertex="1" parent="Rfd3X92rq1UrhuwKcy-7-202">
          <mxGeometry width="192.66" height="50" as="geometry" />
        </mxCell>
        <mxCell id="Rfd3X92rq1UrhuwKcy-7-205" value="r&lt;sub&gt;i+1&lt;/sub&gt;" style="whiteSpace=wrap;html=1;aspect=fixed;" vertex="1" parent="Rfd3X92rq1UrhuwKcy-7-202">
          <mxGeometry x="20.329999999999984" y="5" width="40" height="40" as="geometry" />
        </mxCell>
        <mxCell id="Rfd3X92rq1UrhuwKcy-7-206" value="r&lt;sub&gt;n&lt;/sub&gt;" style="whiteSpace=wrap;html=1;aspect=fixed;" vertex="1" parent="Rfd3X92rq1UrhuwKcy-7-202">
          <mxGeometry x="130.3299999999999" y="5" width="40" height="40" as="geometry" />
        </mxCell>
        <mxCell id="Rfd3X92rq1UrhuwKcy-7-207" value="&lt;b&gt;&lt;font style=&quot;font-size: 16px;&quot;&gt;...&lt;/font&gt;&lt;/b&gt;" style="text;strokeColor=none;align=center;fillColor=none;html=1;verticalAlign=middle;whiteSpace=wrap;rounded=0;" vertex="1" parent="Rfd3X92rq1UrhuwKcy-7-202">
          <mxGeometry x="76.32999999999991" y="18.75" width="40" height="12.5" as="geometry" />
        </mxCell>
        <mxCell id="Rfd3X92rq1UrhuwKcy-7-231" value="" style="endArrow=classic;html=1;rounded=0;strokeColor=#FF0000;entryX=0.9;entryY=0.2;entryDx=0;entryDy=0;entryPerimeter=0;" edge="1" parent="Rfd3X92rq1UrhuwKcy-7-202" target="Rfd3X92rq1UrhuwKcy-7-228">
          <mxGeometry width="50" height="50" relative="1" as="geometry">
            <mxPoint x="41.32999999999993" y="55.5" as="sourcePoint" />
            <mxPoint x="-58.67000000000007" y="-95" as="targetPoint" />
          </mxGeometry>
        </mxCell>
        <mxCell id="Rfd3X92rq1UrhuwKcy-7-208" value="&lt;font face=&quot;Times New Roman&quot;&gt;S&lt;sub&gt;i&lt;/sub&gt;&lt;/font&gt;" style="text;strokeColor=none;align=center;fillColor=none;html=1;verticalAlign=middle;whiteSpace=wrap;rounded=0;" vertex="1" parent="1">
          <mxGeometry x="1057.25" y="382.5" width="42.5" height="20" as="geometry" />
        </mxCell>
        <mxCell id="Rfd3X92rq1UrhuwKcy-7-209" value="&lt;font face=&quot;Times New Roman&quot;&gt;S&lt;sub&gt;j&lt;/sub&gt;&lt;/font&gt;" style="text;strokeColor=none;align=center;fillColor=none;html=1;verticalAlign=middle;whiteSpace=wrap;rounded=0;" vertex="1" parent="1">
          <mxGeometry x="1229.75" y="345" width="42.5" height="20" as="geometry" />
        </mxCell>
        <mxCell id="Rfd3X92rq1UrhuwKcy-7-210" value="&lt;font face=&quot;Times New Roman&quot;&gt;S&lt;sub&gt;k&lt;/sub&gt;&lt;/font&gt;" style="text;strokeColor=none;align=center;fillColor=none;html=1;verticalAlign=middle;whiteSpace=wrap;rounded=0;" vertex="1" parent="1">
          <mxGeometry x="1409.75" y="355" width="42.5" height="20" as="geometry" />
        </mxCell>
        <mxCell id="Rfd3X92rq1UrhuwKcy-7-211" value="" style="rounded=0;whiteSpace=wrap;html=1;" vertex="1" parent="1">
          <mxGeometry x="1006" y="280" width="120" height="35" as="geometry" />
        </mxCell>
        <mxCell id="Rfd3X92rq1UrhuwKcy-7-212" value="" style="whiteSpace=wrap;html=1;aspect=fixed;" vertex="1" parent="1">
          <mxGeometry x="1016" y="282.5" width="30" height="30" as="geometry" />
        </mxCell>
        <mxCell id="Rfd3X92rq1UrhuwKcy-7-213" value="" style="whiteSpace=wrap;html=1;aspect=fixed;" vertex="1" parent="1">
          <mxGeometry x="1051" y="282.5" width="30" height="30" as="geometry" />
        </mxCell>
        <mxCell id="Rfd3X92rq1UrhuwKcy-7-214" value="" style="whiteSpace=wrap;html=1;aspect=fixed;" vertex="1" parent="1">
          <mxGeometry x="1086" y="282.5" width="30" height="30" as="geometry" />
        </mxCell>
        <mxCell id="Rfd3X92rq1UrhuwKcy-7-215" value="" style="rounded=0;whiteSpace=wrap;html=1;" vertex="1" parent="1">
          <mxGeometry x="1166" y="240" width="155" height="35" as="geometry" />
        </mxCell>
        <mxCell id="Rfd3X92rq1UrhuwKcy-7-216" value="" style="whiteSpace=wrap;html=1;aspect=fixed;" vertex="1" parent="1">
          <mxGeometry x="1176" y="242.5" width="30" height="30" as="geometry" />
        </mxCell>
        <mxCell id="Rfd3X92rq1UrhuwKcy-7-217" value="" style="whiteSpace=wrap;html=1;aspect=fixed;" vertex="1" parent="1">
          <mxGeometry x="1211" y="242.5" width="30" height="30" as="geometry" />
        </mxCell>
        <mxCell id="Rfd3X92rq1UrhuwKcy-7-218" value="" style="whiteSpace=wrap;html=1;aspect=fixed;" vertex="1" parent="1">
          <mxGeometry x="1246" y="242.5" width="30" height="30" as="geometry" />
        </mxCell>
        <mxCell id="Rfd3X92rq1UrhuwKcy-7-219" value="" style="whiteSpace=wrap;html=1;aspect=fixed;" vertex="1" parent="1">
          <mxGeometry x="1282" y="242.5" width="30" height="30" as="geometry" />
        </mxCell>
        <mxCell id="Rfd3X92rq1UrhuwKcy-7-220" value="" style="rounded=0;whiteSpace=wrap;html=1;" vertex="1" parent="1">
          <mxGeometry x="1366" y="250" width="145" height="35" as="geometry" />
        </mxCell>
        <mxCell id="Rfd3X92rq1UrhuwKcy-7-221" value="" style="whiteSpace=wrap;html=1;aspect=fixed;" vertex="1" parent="1">
          <mxGeometry x="1381" y="252.5" width="30" height="30" as="geometry" />
        </mxCell>
        <mxCell id="Rfd3X92rq1UrhuwKcy-7-222" value="" style="whiteSpace=wrap;html=1;aspect=fixed;" vertex="1" parent="1">
          <mxGeometry x="1422.25" y="252.5" width="30" height="30" as="geometry" />
        </mxCell>
        <mxCell id="Rfd3X92rq1UrhuwKcy-7-224" value="r&lt;sub&gt;i&lt;/sub&gt;" style="whiteSpace=wrap;html=1;aspect=fixed;fillColor=none;strokeColor=default;" vertex="1" parent="1">
          <mxGeometry x="1466" y="252.5" width="30" height="30" as="geometry" />
        </mxCell>
        <mxCell id="Rfd3X92rq1UrhuwKcy-7-225" value="" style="endArrow=classic;html=1;rounded=0;" edge="1" parent="1">
          <mxGeometry width="50" height="50" relative="1" as="geometry">
            <mxPoint x="760" y="240" as="sourcePoint" />
            <mxPoint x="910" y="240" as="targetPoint" />
          </mxGeometry>
        </mxCell>
        <mxCell id="Rfd3X92rq1UrhuwKcy-7-226" value="&lt;font face=&quot;Times New Roman&quot;&gt;t&lt;sub&gt;i_exe&lt;/sub&gt;&lt;/font&gt;" style="text;strokeColor=none;align=center;fillColor=none;html=1;verticalAlign=middle;whiteSpace=wrap;rounded=0;" vertex="1" parent="1">
          <mxGeometry x="810" y="210" width="42.5" height="20" as="geometry" />
        </mxCell>
        <mxCell id="Rfd3X92rq1UrhuwKcy-7-228" value="" style="shape=mxgraph.signs.people.man_1;html=1;pointerEvents=1;fillColor=none;strokeColor=default;verticalLabelPosition=bottom;verticalAlign=top;align=center;sketch=0;" vertex="1" parent="1">
          <mxGeometry x="1272.25" y="365" width="19.67" height="43" as="geometry" />
        </mxCell>
        <mxCell id="Rfd3X92rq1UrhuwKcy-7-229" value="&lt;font style=&quot;font-size: 10px;&quot; face=&quot;Times New Roman&quot;&gt;U&lt;sub&gt;i&lt;/sub&gt;&lt;/font&gt;" style="text;strokeColor=none;align=center;fillColor=none;html=1;verticalAlign=middle;whiteSpace=wrap;rounded=0;" vertex="1" parent="1">
          <mxGeometry x="1262.0000000000002" y="406" width="42.5" height="20" as="geometry" />
        </mxCell>
        <mxCell id="Rfd3X92rq1UrhuwKcy-7-230" value="" style="endArrow=classic;html=1;rounded=0;entryX=0.768;entryY=1.026;entryDx=0;entryDy=0;entryPerimeter=0;strokeColor=#FF0000;" edge="1" parent="1" target="Rfd3X92rq1UrhuwKcy-7-198">
          <mxGeometry width="50" height="50" relative="1" as="geometry">
            <mxPoint x="1480" y="252.5" as="sourcePoint" />
            <mxPoint x="1530" y="202.5" as="targetPoint" />
          </mxGeometry>
        </mxCell>
        <mxCell id="Rfd3X92rq1UrhuwKcy-7-232" value="&lt;font face=&quot;Times New Roman&quot;&gt;TC&lt;sub&gt;i&lt;/sub&gt;&lt;/font&gt;" style="text;strokeColor=none;align=center;fillColor=none;html=1;verticalAlign=middle;whiteSpace=wrap;rounded=0;" vertex="1" parent="1">
          <mxGeometry x="1321" y="180" width="42.5" height="20" as="geometry" />
        </mxCell>
      </root>
    </mxGraphModel>
  </diagram>
</mxfile>
